# xmcd
#
# Track frame offsets: 
#        150
#        18970
#        46871
#        58800
#        76965
#        100950
#        118314
#        135675
#        154321
#        170614
#        188419
#        214583
#        231737
#        247164
#
# Disc length: 3590 seconds
#
# Revision: 1
# Processed by: cddbd v1.5.2PL0 Copyright (c) Steve Scherf et al.
# Submitted via: ExactAudioCopy v0.99pb5
#
DISCID=c60e040e
DTITLE=Eriko Ishihara - Love Standards
DYEAR=2007
DGENRE=Jazz
TTITLE0=I've Got You Under My Skin
TTITLE1=My Funny Valentine
TTITLE2='S Wonderful
TTITLE3=Tea For Two
TTITLE4=Isn't It A Pity¡H
TTITLE5=Quiet Nights of Quiet Stars¢ACorcovado
TTITLE6=En Estate
TTITLE7=Misty
TTITLE8=Shall We Dance
TTITLE9=Smile
TTITLE10=Violets For Your Furs
TTITLE11=You'd Be So Nice To Come Home To
TTITLE12=Night And Day
TTITLE13=What A Wonderful World
EXTD=YEAR: 2007
EXTT0=
EXTT1=
EXTT2=
EXTT3=
EXTT4=
EXTT5=
EXTT6=
EXTT7=
EXTT8=
EXTT9=
EXTT10=
EXTT11=
EXTT12=
EXTT13=
PLAYORDER=
